<svg id="Layer_1" data-name="Layer 1" xmlns="http://www.w3.org/2000/svg" viewBox="0 0 103 105"><title>icon</title><path d="M101.46,0H13a1.59,1.59,0,0,0-1.23.55A1.55,1.55,0,0,0,12.2,2.9L32.83,14h0l4.81,32.12a1.55,1.55,0,0,0,2.41,1L60.2,32.83h0L74.49,40.7a1.54,1.54,0,0,0,2-.47l15-21.64A1.54,1.54,0,1,0,89,16.83L74.76,37.33h0L46.27,21.62a0,0,0,0,1,0,0L97.54,4.48h0L93.3,10.61a1.61,1.61,0,0,0,.31,2.19,1.54,1.54,0,0,0,2.17-.37l7-10,.12-.2A1.55,1.55,0,0,0,101.46,0ZM57.2,31.17s0,0,0,0l-16,11.43h0l2.51-18.89h0ZM42,19.81a1.56,1.56,0,0,0-1,1.26L39.08,34.89h0L36,14.32h0L81.81,6.47s0,0,0,0Zm-7.44-8.37h0L19.05,3.1s0,0,0,0H83.24s0,0,0,0ZM27.59,61.68c-.43,0-.87,0-1.3,0a1.54,1.54,0,0,0,.1,3.08h.1c.38,0,.77,0,1.15,0a1.54,1.54,0,0,0-.05-3.08Zm7.56,1.09a22.16,22.16,0,0,0-2.49-.65,1.54,1.54,0,0,0-.59,3,18,18,0,0,1,2.13.55,1.54,1.54,0,0,0,.95-2.93ZM19.14,77a14,14,0,0,1-.2-2.15,1.54,1.54,0,1,0-3.08.07,18.76,18.76,0,0,0,.25,2.6,1.55,1.55,0,0,0,1.78,1.26A1.54,1.54,0,0,0,19.14,77Zm7.5,9.52a10.41,10.41,0,0,1-1.88-.89,1.52,1.52,0,0,0-2.1.53,1.54,1.54,0,0,0,.52,2.11,13.24,13.24,0,0,0,2.44,1.15,1.54,1.54,0,0,0,1-2.9Zm0-27.18c.55-.51,1.13-1,1.72-1.48a1.54,1.54,0,0,0-1.91-2.42c-.65.52-1.29,1.07-1.9,1.64a1.54,1.54,0,0,0,2.09,2.26ZM20.51,81.08a1.54,1.54,0,1,0-2.72,1.45,16.25,16.25,0,0,0,1.43,2.23,1.54,1.54,0,1,0,2.43-1.89A12.1,12.1,0,0,1,20.51,81.08ZM18,71.71a1.55,1.55,0,0,0,1.48-1.13,14.43,14.43,0,0,1,.73-2.06,1.54,1.54,0,1,0-2.83-1.21,19.38,19.38,0,0,0-.87,2.46,1.54,1.54,0,0,0,1.08,1.89A1.44,1.44,0,0,0,18,71.71Zm5.4-11.16a1.54,1.54,0,0,0-2.16.27c-.51.66-1,1.35-1.46,2A1.54,1.54,0,0,0,20.17,65a1.55,1.55,0,0,0,2.13-.44c.41-.63.85-1.25,1.32-1.84A1.55,1.55,0,0,0,23.35,60.55Zm14.34,4.89a1.55,1.55,0,0,0,.37,2.15A10.07,10.07,0,0,1,39.65,69a1.56,1.56,0,0,0,2.18,0,1.55,1.55,0,0,0,0-2.18,13.76,13.76,0,0,0-2-1.74A1.54,1.54,0,0,0,37.69,65.44ZM32.86,86.86a12.85,12.85,0,0,1-2,.27h-.11a1.54,1.54,0,0,0,.07,3.08h.23a16.37,16.37,0,0,0,2.46-.34,1.54,1.54,0,0,0-.65-3Zm9.88-16.39a1.54,1.54,0,0,0-1,1.93,9.17,9.17,0,0,1,.37,2,1.54,1.54,0,0,0,3.07-.24,11.75,11.75,0,0,0-.51-2.69A1.53,1.53,0,0,0,42.74,70.47Zm.81,7.07a1.54,1.54,0,0,0-1.91,1,12.49,12.49,0,0,1-.77,2,1.54,1.54,0,1,0,2.76,1.37,16.17,16.17,0,0,0,1-2.47A1.54,1.54,0,0,0,43.55,77.54Zm-12.16-22a1.5,1.5,0,0,0,.76-.21c.65-.37,1.33-.72,2-1a1.54,1.54,0,1,0-1.31-2.79c-.75.36-1.5.74-2.22,1.15a1.55,1.55,0,0,0,.76,2.89Zm7,28.41a12.09,12.09,0,0,1-1.65,1.3,1.55,1.55,0,0,0-.46,2.13,1.57,1.57,0,0,0,2.13.46A13.85,13.85,0,0,0,40.5,86.2,1.54,1.54,0,1,0,38.39,84Zm.37-34.6-1.23.35a1.56,1.56,0,0,0-1.05,1.84,1.55,1.55,0,0,0,1.94,1.11l1.14-.32a1.54,1.54,0,0,0-.8-3ZM5.58,101.71A1.54,1.54,0,1,0,2.79,103c.18.39.37.78.57,1.16a1.54,1.54,0,0,0,2.73-1.41Q5.82,102.23,5.58,101.71ZM3,99.52a1.55,1.55,0,0,0,1.06-1.91c-.2-.69-.37-1.41-.5-2.11a1.54,1.54,0,1,0-3,.59c.15.79.34,1.59.56,2.37A1.56,1.56,0,0,0,3,99.52Zm-.22-7.39a2.27,2.27,0,0,0,.3-1.51q0-.81.06-1.62a1.54,1.54,0,1,0-3.07-.2C0,89.41,0,90,0,90.62a2.31,2.31,0,0,0,.34,1.55,1.56,1.56,0,0,0,1.24.58A1.52,1.52,0,0,0,2.77,92.13Zm-.85-6.29a1.56,1.56,0,0,0,1.85-1.15c.16-.7.36-1.41.58-2.1a1.54,1.54,0,1,0-2.93-1C1.18,82.41,1,83.2.77,84A1.54,1.54,0,0,0,1.92,85.84ZM9,69.35l-.47.45c-.42.42-.83.86-1.22,1.31a1.54,1.54,0,1,0,2.31,2c.35-.4.71-.79,1.08-1.16l.42-.4a1.55,1.55,0,0,0,0-2.18A1.52,1.52,0,0,0,9,69.35ZM6.58,74.53A1.54,1.54,0,0,0,4.46,75c-.42.68-.82,1.4-1.18,2.12A1.53,1.53,0,1,0,6,78.56c.33-.65.69-1.29,1.07-1.91A1.54,1.54,0,0,0,6.58,74.53ZM16,66.13a1.53,1.53,0,0,0-2.11-.53c-.37.22-.74.46-1.1.7a1.54,1.54,0,1,0,1.7,2.56c.32-.21.65-.42,1-.61A1.55,1.55,0,0,0,16,66.13Z"/></svg>